# xmcd
#
# Track frame offsets: 
#        150
#        18524
#        38885
#        53030
#        72539
#        100010
#        120349
#        141331
#        163550
#        186658
#        204374
#        226159
#        243440
#        266500
#        292005
#        312977
#
# Disc length: 4414 seconds
#
# Revision: 0
# Processed by: cddbd v1.5.2PL0 Copyright (c) Steve Scherf et al.
# Submitted via: ExactAudioCopyFreeDBPlugin 1.0
#
DISCID=e7113c10
DTITLE=Studio 69 - Techno and Progressive
DYEAR=2003
DGENRE=Techno
TTITLE0=Dance With The Phat Bass
TTITLE1=We Come One (DJ Alon Alferin Remix)
TTITLE2=Rappelkiste
TTITLE3=New Life
TTITLE4=Feel The Beat
TTITLE5=Gypsy Woman Factory Hall (Remix)
TTITLE6=Magic Incanation
TTITLE7=Le Delire
TTITLE8=Let Your Party Go!
TTITLE9=On A Freak
TTITLE10=Sometimes My Heart (Alex Butcher Remix)
TTITLE11=Damn
TTITLE12=Disco
TTITLE13=Hypnotic Tango
TTITLE14=Hysterica
TTITLE15=My First Love
EXTD=
EXTT0=
EXTT1=
EXTT2=
EXTT3=
EXTT4=
EXTT5=
EXTT6=
EXTT7=
EXTT8=
EXTT9=
EXTT10=
EXTT11=
EXTT12=
EXTT13=
EXTT14=
EXTT15=
PLAYORDER=
